<svg width="21" height="20" viewBox="0 0 21 20" fill="none" xmlns="http://www.w3.org/2000/svg">
<path d="M6.33325 14.1665C5.87492 14.1665 5.48242 14.0032 5.15575 13.6765C4.82909 13.3498 4.66603 12.9576 4.66659 12.4998V3.33317C4.66659 2.87484 4.82992 2.48234 5.15659 2.15567C5.48325 1.82901 5.87548 1.66595 6.33325 1.66651H10.4999L12.1666 3.33317H17.9999C18.4583 3.33317 18.8508 3.49651 19.1774 3.82317C19.5041 4.14984 19.6671 4.54206 19.6666 4.99984V12.4998C19.6666 12.9582 19.5033 13.3507 19.1766 13.6773C18.8499 14.004 18.4577 14.1671 17.9999 14.1665H6.33325ZM17.1666 17.4998H2.99992C2.54159 17.4998 2.14909 17.3365 1.82242 17.0098C1.49575 16.6832 1.3327 16.2909 1.33325 15.8332V4.99984H2.99992V15.8332H17.1666V17.4998ZM7.99992 10.8332H16.3333L13.5208 7.08317L11.3333 9.99984L9.97909 8.18734L7.99992 10.8332Z" fill="white" fill-opacity="0.5"/>
</svg>
