<svg width="23" height="22" viewBox="0 0 23 22" fill="none" xmlns="http://www.w3.org/2000/svg">
<path d="M11.8751 11C12.3792 11 12.811 10.8285 13.1703 10.4855C13.5297 10.1425 13.709 9.73067 13.7084 9.25C13.7084 8.76875 13.5287 8.35662 13.1694 8.01362C12.8101 7.67062 12.3786 7.49942 11.8751 7.5C11.3709 7.5 10.9392 7.6715 10.5798 8.0145C10.2205 8.3575 10.0411 8.76933 10.0417 9.25C10.0417 9.73125 10.2214 10.1434 10.5807 10.4864C10.9401 10.8294 11.3715 11.0006 11.8751 11ZM11.8751 19.4219C11.7529 19.4219 11.6306 19.4 11.5084 19.3562C11.3862 19.3125 11.2792 19.2542 11.1876 19.1812C8.95703 17.3 7.29175 15.5535 6.19175 13.9417C5.09175 12.33 4.54175 10.8244 4.54175 9.425C4.54175 7.2375 5.27905 5.49479 6.75366 4.19687C8.22828 2.89896 9.93541 2.25 11.8751 2.25C13.8154 2.25 15.5228 2.89896 16.9974 4.19687C18.472 5.49479 19.209 7.2375 19.2084 9.425C19.2084 10.825 18.6584 12.3309 17.5584 13.9426C16.4584 15.5544 14.7931 17.3006 12.5626 19.1812C12.4709 19.2542 12.364 19.3125 12.2417 19.3562C12.1195 19.4 11.9973 19.4219 11.8751 19.4219Z" fill="white" fill-opacity="0.2"/>
</svg>
